<svg width="9" height="14" viewBox="0 0 9 14" fill="none" xmlns="http://www.w3.org/2000/svg">
<path d="M8.50008 7C8.5011 7.17547 8.46746 7.34942 8.40111 7.51187C8.33476 7.67432 8.23699 7.82208 8.11342 7.94666L2.78008 13.28C2.52901 13.5311 2.18849 13.6721 1.83342 13.6721C1.47835 13.6721 1.13782 13.5311 0.886751 13.28C0.635679 13.0289 0.494629 12.6884 0.494629 12.3333C0.494629 11.9783 0.635679 11.6377 0.88675 11.3867L5.28675 7L0.900084 2.61333C0.681649 2.35826 0.567506 2.03016 0.580468 1.69459C0.593429 1.35902 0.73254 1.04071 0.969999 0.803246C1.20746 0.565787 1.52578 0.426679 1.86135 0.413717C2.19691 0.400756 2.52501 0.514895 2.78008 0.733331L8.11342 6.06666C8.35974 6.31501 8.49861 6.65021 8.50008 7Z" fill="#2E2E2E"/>
</svg>
