<svg width="6" height="10" viewBox="0 0 6 10" fill="none" xmlns="http://www.w3.org/2000/svg">
<path d="M6.00006 5C6.00082 5.1316 5.9756 5.26207 5.92583 5.3839C5.87607 5.50574 5.80274 5.61656 5.71006 5.71L1.71006 9.71C1.52176 9.8983 1.26636 10.0041 1.00006 10.0041C0.733761 10.0041 0.478367 9.8983 0.290063 9.71C0.101759 9.52169 -0.00402836 9.2663 -0.00402838 9C-0.00402839 8.7337 0.101759 8.4783 0.290063 8.29L3.59006 5L0.300063 1.71C0.136236 1.5187 0.0506297 1.27262 0.0603509 1.02095C0.070072 0.76927 0.174405 0.53053 0.352499 0.352435C0.530594 0.174341 0.769333 0.0700102 1.02101 0.0602884C1.27268 0.0505676 1.51876 0.136172 1.71006 0.299998L5.71006 4.3C5.89481 4.48626 5.99896 4.73766 6.00006 5Z" fill="#F8B602"/>
</svg>
