<svg width="56" height="57" viewBox="0 0 56 57" fill="none" xmlns="http://www.w3.org/2000/svg">
<path d="M55.7084 25.4083H0.291687V24.2416C0.291687 13.7416 12.1334 1.95831 28 1.95831C43.8667 1.95831 55.7084 13.7416 55.7084 24.2416V25.4083ZM2.68335 23.075H53.375C52.5 13.975 41.9417 4.23331 28 4.23331C14.0584 4.23331 3.50002 13.975 2.68335 23.075Z" fill="#2E2E2E"/>
<path d="M9.09998 18.4667C12.3666 13.3334 19.6 8.90002 28 8.90002C36.4 8.90002 43.575 13.3334 46.9 18.4667H9.09998ZM52.325 53.875H3.67498C2.44998 53.875 1.45831 52.8834 1.45831 51.6584V44.1917H54.5416V51.6584C54.5416 52.8834 53.55 53.875 52.325 53.875Z" fill="#A6C44A"/>
<path d="M52.325 55.0416H3.67502C1.80835 55.0416 0.291687 53.525 0.291687 51.6583V43.0833H55.7084V51.7166C55.7084 53.525 54.1917 55.0416 52.325 55.0416ZM2.62502 45.3583V51.6583C2.62502 52.2416 3.09169 52.7083 3.67502 52.7083H52.3834C52.9667 52.7083 53.4334 52.2416 53.4334 51.6583V45.3583H2.62502Z" fill="#2E2E2E"/>
<path d="M49.525 39.175H6.47498C3.67498 39.175 1.45831 36.9 1.45831 34.1583C1.45831 31.3583 3.73331 29.1417 6.47498 29.1417H49.525C52.325 29.1417 54.5416 31.4167 54.5416 34.1583C54.5416 36.9583 52.325 39.175 49.525 39.175Z" fill="#F8B602"/>
<path d="M49.525 40.3416H6.47502C3.03335 40.3416 0.291687 37.5416 0.291687 34.1583C0.291687 30.775 3.09169 27.975 6.47502 27.975H49.525C52.9667 27.975 55.7084 30.775 55.7084 34.1583C55.7084 37.5416 52.9084 40.3416 49.525 40.3416ZM6.47502 30.25C4.31669 30.25 2.56669 32 2.56669 34.1583C2.56669 36.3166 4.31669 38.0666 6.47502 38.0666H49.525C51.6834 38.0666 53.4334 36.3166 53.4334 34.1583C53.4334 32 51.6834 30.25 49.525 30.25H6.47502Z" fill="#F8B602"/>
<path d="M30.8 36.3167C29.6917 36.3167 28.7 35.9083 27.7667 35.5583C27.0084 35.2667 26.3084 34.975 25.6667 34.975C24.9084 34.9167 24.0334 35.2083 23.1584 35.4417C21.8167 35.85 20.3 36.3167 18.7834 35.7917C18.3167 35.6167 17.9084 35.3833 17.5584 35.2083C17.325 35.0917 17.0917 34.9167 16.8584 34.8583C15.75 34.3917 14.4084 34.6833 12.95 35.0333L12.5417 35.15C10.85 35.5 8.40002 35.85 6.65002 34.3333L8.16669 32.5833C8.92502 33.225 10.15 33.3417 12.075 32.9333L12.4834 32.8167C14.1167 32.4667 15.9834 32.0583 17.7917 32.7583C18.1417 32.9333 18.4334 33.1083 18.7834 33.225C19.075 33.4 19.3667 33.575 19.6 33.6333C20.4167 33.925 21.4084 33.6333 22.575 33.2833C23.625 32.9917 24.675 32.6417 25.9 32.7C26.95 32.7583 27.825 33.1083 28.7 33.4583C29.6334 33.8083 30.5084 34.1583 31.2667 34.0417C31.5584 33.9833 31.9084 33.8667 32.3167 33.6917C32.4917 33.6333 32.6084 33.575 32.7834 33.5167C34.5334 32.8167 36.575 32.6417 38.4417 33.05C38.7334 33.1083 39.0834 33.1667 39.375 33.2833C39.9584 33.4583 40.5417 33.575 41.0667 33.575C41.825 33.575 42.6417 33.225 43.4584 32.9333C43.8084 32.8167 44.1584 32.6417 44.5084 32.525C46.4917 31.825 48.2417 32 49.4084 32.9917L47.8917 34.7417C47.1334 34.1 45.7917 34.5083 45.2084 34.6833C44.9167 34.8 44.5667 34.9167 44.275 35.0333C43.2834 35.4417 42.2334 35.85 41.0084 35.85C41.0084 35.85 41.0084 35.85 40.95 35.85C40.1334 35.85 39.375 35.675 38.675 35.5C38.3834 35.4417 38.15 35.3833 37.8584 35.325C36.4 35.0333 34.8834 35.15 33.5417 35.675C33.425 35.7333 33.25 35.7917 33.1334 35.85C32.6667 36.025 32.2 36.2583 31.6167 36.3167C31.325 36.2583 31.0917 36.3167 30.8 36.3167Z" fill="#2E2E2E"/>
<path d="M9.11775 19.0612L7.7644 17.1605L6.0062 18.4123L7.35955 20.3131L9.11775 19.0612Z" fill="#2E2E2E"/>
<path d="M40.0946 11.8803L38.741 9.97974L36.9829 11.2318L38.3366 13.1324L40.0946 11.8803Z" fill="#2E2E2E"/>
<path d="M34.5035 9.53797L33.1501 7.63721L31.3919 8.88905L32.7453 10.7898L34.5035 9.53797Z" fill="#2E2E2E"/>
<path d="M13.4828 14.6626L11.9265 12.9241L10.8834 13.8578L12.4397 15.5964L13.4828 14.6626Z" fill="#2E2E2E"/>
<path d="M21.0214 10.9073L20.1235 8.75366L18.4544 9.4495L19.3523 11.6032L21.0214 10.9073Z" fill="#2E2E2E"/>
<path d="M15.4572 20.0792L14.4672 17.9663L13.2523 18.5356L14.2423 20.6485L15.4572 20.0792Z" fill="#2E2E2E"/>
<path d="M26.6584 9.71664L25.2 7.9083C25.9 7.32497 26.775 6.91664 27.65 6.74164L28.175 8.9583C27.5917 9.1333 27.0667 9.36664 26.6584 9.71664ZM17.7917 16.5416L17.2084 14.325C17.7334 14.2083 18.2584 13.975 18.725 13.7416L19.775 15.7833C19.1334 16.075 18.4917 16.3083 17.7917 16.5416Z" fill="#2E2E2E"/>
<path d="M30.8662 19.6824L30.1246 17.4701L28.1888 18.119L28.9304 20.3313L30.8662 19.6824Z" fill="#2E2E2E"/>
<path d="M42.6122 20.4088L41.8706 18.1964L39.9348 18.8453L40.6764 21.0576L42.6122 20.4088Z" fill="#2E2E2E"/>
<path d="M35.6416 20.8583L34.7083 18.7583C35.2916 18.525 35.8749 18.2917 36.4583 18.175L36.9249 20.45C36.4583 20.5667 35.9916 20.6833 35.6416 20.8583ZM32.6666 16.3667L31.7333 14.2667C32.3166 14.0333 32.8999 13.8583 33.4833 13.6833L33.9499 15.9583C33.4833 16.0167 33.0749 16.1917 32.6666 16.3667Z" fill="#2E2E2E"/>
<path d="M26.9311 14.8917L26.187 12.6802L24.8601 13.1266L25.6042 15.3381L26.9311 14.8917Z" fill="#2E2E2E"/>
<path d="M16.0246 12.0402L15.2795 9.82898L13.9528 10.276L14.6979 12.4872L16.0246 12.0402Z" fill="#2E2E2E"/>
<path d="M24.0145 20.5081L23.2694 18.2969L21.9427 18.744L22.6878 20.9552L24.0145 20.5081Z" fill="#2E2E2E"/>
<path d="M48.1248 18.756L47.3807 16.5445L46.0538 16.9909L46.7979 19.2025L48.1248 18.756Z" fill="#2E2E2E"/>
<path d="M43.9295 16.2154L43.1854 14.0038L41.8585 14.4503L42.6026 16.6618L43.9295 16.2154Z" fill="#2E2E2E"/>
</svg>
