<svg width="56" height="57" viewBox="0 0 56 57" fill="none" xmlns="http://www.w3.org/2000/svg">
<path d="M14.4084 55.625C9.97503 55.625 5.5417 54.05 2.80003 50.4917C0.408363 47.4 -0.291637 43.2583 0.700029 38.7667C1.63336 34.6833 3.9667 30.8333 7.00003 28.5583C11.9584 24.7667 35.0584 13.2167 41.1834 21.2083C43.8084 24.7083 42.525 30.6 37.45 38.2417C33.4834 44.1917 28.1167 49.9083 25.0834 52.1833C22.225 54.4 18.3167 55.625 14.4084 55.625ZM34.0084 20.6833C26.075 20.6833 12.8917 26.9833 8.40003 30.3667C5.83336 32.35 3.7917 35.675 2.97503 39.2333C2.10003 43.025 2.7417 46.525 4.6667 49.0917C8.92503 54.6334 18.4917 54.3417 23.6834 50.4333C26.6 48.2167 31.85 42.5583 35.525 37.0167C39.9584 30.3083 41.3 25.2333 39.3167 22.6083C38.2667 21.2667 36.3417 20.6833 34.0084 20.6833Z" fill="#2E2E2E"/>
<path d="M14.4667 49.85C11.375 49.85 8.80837 48.8 7.40837 46.9917C6.12504 45.3 5.71671 42.7334 6.35837 40.05C6.94171 37.25 8.51671 34.625 10.5 33.1667C14.6417 30.0167 27.0667 24.1833 34.0084 24.1833C35.8167 24.1833 36.5167 24.5917 36.6334 24.7084C36.9834 25.1167 37.275 28.15 32.6667 35.0917C28.8167 40.8084 23.7417 46 21.525 47.6917C19.775 49.0334 17.0917 49.85 14.4667 49.85Z" fill="#F8B602"/>
<path d="M53.7249 16.8333C53.2583 16.1917 52.6749 15.725 52.0333 15.375C50.8083 14.7333 49.8749 13.5667 49.6416 12.225C49.4666 11.525 49.1749 10.825 48.7083 10.2417C47.2499 8.43335 44.2749 8.02502 42.3499 9.36668C40.1916 10.8833 39.7249 13.9167 41.2999 16.0167C41.7083 16.5417 41.6499 17.3 41.1249 17.65L37.8583 20.1583C38.7916 20.5667 39.6083 21.0917 40.1916 21.9083C40.7749 22.6667 41.1249 23.6 41.2416 24.5917L44.5083 22.0833C45.0333 21.675 45.7333 21.7917 46.1416 22.3167C47.7749 24.4167 50.8083 24.7667 52.8499 23.075C54.7166 21.675 55.0666 18.7 53.7249 16.8333Z" fill="#A6C44A"/>
<path d="M40.3667 26.75L40.1334 24.7667C40.0167 23.8917 39.7834 23.1917 39.3167 22.6084C38.85 22.025 38.2667 21.5584 37.45 21.2667L35.5834 20.5084L40.4834 16.775L40.425 16.7167C39.4334 15.4334 39.025 13.8584 39.3167 12.2834C39.55 10.7084 40.425 9.30835 41.7084 8.37502C44.1 6.68335 47.7167 7.15002 49.5834 9.48335C50.1667 10.2417 50.575 11.0584 50.75 11.9334C50.9834 12.9834 51.625 13.8584 52.5584 14.325C53.375 14.7334 54.075 15.375 54.6584 16.1334C56.4084 18.525 55.8834 22.1417 53.6084 24.0084C52.3834 25.0584 50.8084 25.4667 49.2334 25.2917C47.6584 25.1167 46.2584 24.3 45.2667 23.0167L45.2084 22.9584L40.3667 26.75ZM45.2084 20.7417C45.325 20.7417 45.4417 20.7417 45.5 20.7417C46.1417 20.8 46.6667 21.15 47.075 21.675C47.6584 22.4334 48.5334 22.9584 49.4667 23.075C50.4584 23.1917 51.3917 22.9 52.15 22.2584C53.4917 21.15 53.7834 18.875 52.7917 17.475C52.4417 17.0084 52.0334 16.6584 51.5667 16.3667C49.9917 15.55 48.8834 14.15 48.5334 12.4C48.4167 11.875 48.1834 11.35 47.8334 10.8834C46.725 9.54169 44.45 9.25002 43.05 10.2417C42.2334 10.825 41.7084 11.6417 41.5917 12.575C41.4167 13.5084 41.7084 14.5 42.2917 15.2584C42.7 15.7834 42.875 16.3667 42.7584 17.0084C42.7 17.5917 42.35 18.175 41.8834 18.525L40.0167 19.9834C40.4834 20.3334 40.8334 20.6834 41.1834 21.15C41.5334 21.6167 41.7667 22.0834 42 22.6084L43.8667 21.15C44.275 20.9167 44.7417 20.7417 45.2084 20.7417Z" fill="#2E2E2E"/>
<path d="M7.90403 37.1416L6.22742 36.9164L5.9168 39.229L7.59341 39.4542L7.90403 37.1416Z" fill="#2E2E2E"/>
<path d="M20.385 37.4902L18.7084 37.265L18.3978 39.5775L20.0744 39.8027L20.385 37.4902Z" fill="#2E2E2E"/>
<path d="M31.7651 34.8619L30.0885 34.6367L29.7779 36.9493L31.4545 37.1745L31.7651 34.8619Z" fill="#2E2E2E"/>
<path d="M14.9021 48.0451L13.2255 47.8199L12.9148 50.1325L14.5915 50.3577L14.9021 48.0451Z" fill="#2E2E2E"/>
<path d="M18.9258 30.8381L17.2491 30.6129L16.9385 32.9254L18.6151 33.1506L18.9258 30.8381Z" fill="#2E2E2E"/>
<path d="M30.7143 25.2949L29.0377 25.0697L28.7271 27.3823L30.4037 27.6075L30.7143 25.2949Z" fill="#2E2E2E"/>
<path d="M15.6333 1.375H13.2999V8.60833H15.6333V1.375Z" fill="#2E2E2E"/>
<path d="M8.74996 11.4667H6.41663V18.7H8.74996V11.4667Z" fill="#2E2E2E"/>
<path d="M22.575 9.19165H20.2417V16.425H22.575V9.19165Z" fill="#2E2E2E"/>
</svg>
