<svg width="26" height="29" viewBox="0 0 26 29" fill="none" xmlns="http://www.w3.org/2000/svg">
<path d="M0.333344 24.8333C0.333344 27.6967 6.81334 29 12.8333 29C18.8533 29 25.3333 27.6967 25.3333 24.8333C25.3333 22.56 21.3983 21.5333 18.5633 21.09L20.5 19.1667C22.0152 17.6516 23.047 15.7213 23.4651 13.6198C23.8832 11.5184 23.6687 9.34009 22.8488 7.36051C22.0289 5.38092 20.6403 3.68893 18.8588 2.49851C17.0772 1.30809 14.9827 0.672699 12.84 0.672699C10.6973 0.672699 8.60279 1.30809 6.82124 2.49851C5.03969 3.68893 3.65115 5.38092 2.83123 7.36051C2.01131 9.34009 1.79682 11.5184 2.2149 13.6198C2.63298 15.7213 3.66485 17.6516 5.18001 19.1667L7.11001 21.0967C4.26834 21.5333 0.333344 22.56 0.333344 24.8333ZM14.5 7.33335C14.5 7.17859 14.5431 7.02688 14.6245 6.89524C14.7058 6.76359 14.8222 6.6572 14.9607 6.58799C15.0991 6.51878 15.254 6.48948 15.4082 6.50338C15.5623 6.51728 15.7095 6.57382 15.8333 6.66668C16.8653 7.44091 17.7222 8.42423 18.348 9.55236C18.9738 10.6805 19.3544 11.928 19.465 13.2133C19.5016 13.6082 19.3952 14.0031 19.1652 14.3261C18.9352 14.6491 18.5968 14.8788 18.2117 14.9733L16.1667 15.485V17.3333C16.1667 17.5544 16.0789 17.7663 15.9226 17.9226C15.7663 18.0789 15.5544 18.1667 15.3333 18.1667C15.1123 18.1667 14.9004 18.0789 14.7441 17.9226C14.5878 17.7663 14.5 17.5544 14.5 17.3333V7.33335ZM7.00001 9.00001V7.33335C7.00001 7.11233 7.08781 6.90037 7.24409 6.74409C7.40037 6.58781 7.61233 6.50001 7.83334 6.50001C8.05436 6.50001 8.26632 6.58781 8.4226 6.74409C8.57888 6.90037 8.66668 7.11233 8.66668 7.33335V9.00001C8.66999 9.28742 8.74871 9.56892 8.89495 9.81636C9.04119 10.0638 9.24983 10.2685 9.50001 10.41V7.33335C9.50001 7.11233 9.58781 6.90037 9.74409 6.74409C9.90037 6.58781 10.1123 6.50001 10.3333 6.50001C10.5544 6.50001 10.7663 6.58781 10.9226 6.74409C11.0789 6.90037 11.1667 7.11233 11.1667 7.33335V10.41C11.4169 10.2685 11.6255 10.0638 11.7717 9.81636C11.918 9.56892 11.9967 9.28742 12 9.00001V7.33335C12 7.11233 12.0878 6.90037 12.2441 6.74409C12.4004 6.58781 12.6123 6.50001 12.8333 6.50001C13.0544 6.50001 13.2663 6.58781 13.4226 6.74409C13.5789 6.90037 13.6667 7.11233 13.6667 7.33335V9.00001C13.6639 9.73686 13.4171 10.452 12.9648 11.0337C12.5124 11.6154 11.8801 12.0308 11.1667 12.215V17.3333C11.1667 17.5544 11.0789 17.7663 10.9226 17.9226C10.7663 18.0789 10.5544 18.1667 10.3333 18.1667C10.1123 18.1667 9.90037 18.0789 9.74409 17.9226C9.58781 17.7663 9.50001 17.5544 9.50001 17.3333V12.215C8.78656 12.0308 8.15425 11.6154 7.70193 11.0337C7.24961 10.452 7.00277 9.73686 7.00001 9.00001ZM8.59001 22.5767L11.065 25.0533C11.2972 25.2857 11.5728 25.47 11.8763 25.5957C12.1797 25.7214 12.5049 25.7861 12.8333 25.7861C13.1618 25.7861 13.487 25.7214 13.7904 25.5957C14.0938 25.47 14.3695 25.2857 14.6017 25.0533L17.0767 22.5767C21.6567 23.1067 23.6667 24.3133 23.6667 24.8333C23.6667 25.58 19.9817 27.3333 12.8333 27.3333C5.68501 27.3333 2.00001 25.58 2.00001 24.8333C2.00001 24.3133 4.01001 23.1067 8.59001 22.5767Z" fill="#A098AE"/>
</svg>
