<svg width="29" height="25" viewBox="0 0 29 25" fill="none" xmlns="http://www.w3.org/2000/svg">
<path d="M24.8333 0H4.83332C3.72825 0 2.66845 0.438987 1.88704 1.22039C1.10564 2.00179 0.666656 3.0616 0.666656 4.16667V17.5C0.666656 18.6051 1.10564 19.6649 1.88704 20.4463C2.66845 21.2277 3.72825 21.6667 4.83332 21.6667H7.33332V23.3883C7.33334 23.6146 7.39475 23.8366 7.51102 24.0306C7.62729 24.2247 7.79405 24.3836 7.99352 24.4903C8.19299 24.5971 8.41769 24.6477 8.64366 24.6368C8.86964 24.6259 9.08841 24.5538 9.27666 24.4283L13.4183 21.6667H24.8333C25.9384 21.6667 26.9982 21.2277 27.7796 20.4463C28.561 19.6649 29 18.6051 29 17.5V4.16667C29 3.0616 28.561 2.00179 27.7796 1.22039C26.9982 0.438987 25.9384 0 24.8333 0ZM15.8333 10.5467L14.3117 12.2717L14.5267 14.565C14.5468 14.7804 14.5107 14.9972 14.422 15.1945C14.3333 15.3918 14.195 15.5627 14.0206 15.6906C13.8462 15.8185 13.6416 15.8991 13.4268 15.9244C13.212 15.9497 12.9943 15.9189 12.795 15.835L10.6667 14.915L8.55332 15.8333C8.35433 15.919 8.1365 15.9515 7.92116 15.9278C7.70582 15.904 7.50033 15.8247 7.3248 15.6978C7.14927 15.5708 7.0097 15.4004 6.91976 15.2033C6.82981 15.0062 6.79256 14.7891 6.81166 14.5733L7.02832 12.275L5.49999 10.5467C5.35681 10.3834 5.25854 10.1858 5.21486 9.97311C5.17117 9.76042 5.18355 9.54003 5.2508 9.33359C5.31805 9.12714 5.43784 8.94174 5.59841 8.79559C5.75898 8.64944 5.95481 8.54758 6.16666 8.5L8.41499 8L9.58166 6.01667C9.70185 5.84272 9.86246 5.70053 10.0497 5.60232C10.2369 5.50411 10.4452 5.4528 10.6567 5.4528C10.8681 5.4528 11.0764 5.50411 11.2636 5.60232C11.4509 5.70053 11.6115 5.84272 11.7317 6.01667L12.8983 8.00333L15.145 8.50333C15.3577 8.54874 15.555 8.64874 15.7174 8.7935C15.8798 8.93826 16.0017 9.12279 16.0711 9.32895C16.1406 9.53511 16.1552 9.75579 16.1135 9.9693C16.0718 10.1828 15.9752 10.3818 15.8333 10.5467ZM21.5 15H18.1667C17.9456 15 17.7337 14.9122 17.5774 14.7559C17.4211 14.5996 17.3333 14.3877 17.3333 14.1667C17.3333 13.9457 17.4211 13.7337 17.5774 13.5774C17.7337 13.4211 17.9456 13.3333 18.1667 13.3333H21.5C21.721 13.3333 21.933 13.4211 22.0892 13.5774C22.2455 13.7337 22.3333 13.9457 22.3333 14.1667C22.3333 14.3877 22.2455 14.5996 22.0892 14.7559C21.933 14.9122 21.721 15 21.5 15ZM24 11.6667H18.1667C17.9456 11.6667 17.7337 11.5789 17.5774 11.4226C17.4211 11.2663 17.3333 11.0543 17.3333 10.8333C17.3333 10.6123 17.4211 10.4004 17.5774 10.2441C17.7337 10.0878 17.9456 10 18.1667 10H24C24.221 10 24.433 10.0878 24.5892 10.2441C24.7455 10.4004 24.8333 10.6123 24.8333 10.8333C24.8333 11.0543 24.7455 11.2663 24.5892 11.4226C24.433 11.5789 24.221 11.6667 24 11.6667ZM24 8.33333H18.1667C17.9456 8.33333 17.7337 8.24554 17.5774 8.08926C17.4211 7.93298 17.3333 7.72101 17.3333 7.5C17.3333 7.27899 17.4211 7.06702 17.5774 6.91074C17.7337 6.75446 17.9456 6.66667 18.1667 6.66667H24C24.221 6.66667 24.433 6.75446 24.5892 6.91074C24.7455 7.06702 24.8333 7.27899 24.8333 7.5C24.8333 7.72101 24.7455 7.93298 24.5892 8.08926C24.433 8.24554 24.221 8.33333 24 8.33333Z" fill="#A098AE"/>
</svg>
