<svg width="29" height="24" viewBox="0 0 29 24" fill="none" xmlns="http://www.w3.org/2000/svg">
<path d="M0.666656 18.1667C0.666656 18.8297 0.930048 19.4656 1.39889 19.9344C1.86773 20.4033 2.50362 20.6667 3.16666 20.6667H4.08499C4.27625 21.6086 4.78726 22.4554 5.53144 23.0636C6.27562 23.6719 7.20719 24.0042 8.16832 24.0042C9.12945 24.0042 10.061 23.6719 10.8052 23.0636C11.5494 22.4554 12.0604 21.6086 12.2517 20.6667H17.5C18.6309 20.6587 19.7349 20.3211 20.6767 19.695C20.6767 19.7417 20.6633 19.7867 20.6633 19.8333C20.6627 20.7299 20.9514 21.6028 21.4864 22.3223C22.0214 23.0417 22.7741 23.5695 23.6329 23.827C24.4917 24.0846 25.4107 24.0583 26.2534 23.752C27.096 23.4458 27.8174 22.8758 28.3103 22.1269C28.8033 21.378 29.0415 20.4901 28.9897 19.595C28.9378 18.6999 28.5986 17.8454 28.0225 17.1585C27.4463 16.4715 26.6639 15.9887 25.7915 15.7818C24.9191 15.5749 24.0033 15.6549 23.18 16.01C23.3206 15.3869 23.3566 14.7449 23.2867 14.11L22.6417 8.94332C22.8141 8.98106 22.9901 9.00006 23.1667 8.99999H24C24.442 8.99999 24.8659 8.8244 25.1785 8.51183C25.4911 8.19927 25.6667 7.77535 25.6667 7.33332V5.66666C25.6667 5.22463 25.4911 4.80071 25.1785 4.48815C24.8659 4.17559 24.442 3.99999 24 3.99999H23.1667C22.7805 4.0018 22.4 4.09302 22.0551 4.26652C21.7101 4.44002 21.41 4.69107 21.1783 4.99999L20.91 4.73166C20.4402 4.26498 19.8055 4.00213 19.1433 3.99999H18.1667C17.9456 3.99999 17.7337 4.08779 17.5774 4.24407C17.4211 4.40035 17.3333 4.61231 17.3333 4.83332C17.3333 5.05434 17.4211 5.2663 17.5774 5.42258C17.7337 5.57886 17.9456 5.66666 18.1667 5.66666H19.1433C19.3639 5.6667 19.5755 5.75421 19.7317 5.90999L20.705 6.88332C20.73 7.03832 21.3283 11.8467 21.6367 14.3167C21.7099 14.9031 21.6576 15.4984 21.4832 16.063C21.3088 16.6277 21.0163 17.1488 20.625 17.5917C20.2338 18.0346 19.7528 18.3893 19.214 18.6321C18.6752 18.8749 18.091 19.0003 17.5 19H17.1833L15.6667 11.4183V9.83332C15.6667 9.17028 15.4033 8.5344 14.9344 8.06556C14.4656 7.59672 13.8297 7.33332 13.1667 7.33332H9.83332V3.16666C9.83332 2.50362 9.56993 1.86773 9.10109 1.39889C8.63225 0.930048 7.99636 0.666656 7.33332 0.666656H3.16666C2.50362 0.666656 1.86773 0.930048 1.39889 1.39889C0.930048 1.86773 0.666656 2.50362 0.666656 3.16666V9.83332C0.666656 10.4964 0.930048 11.1322 1.39889 11.6011C1.86773 12.0699 2.50362 12.3333 3.16666 12.3333H3.50999C2.62732 13.0287 1.91315 13.9145 1.4208 14.9246C0.928456 15.9347 0.670658 17.043 0.666656 18.1667ZM24.8333 17.3333C25.3278 17.3333 25.8111 17.4799 26.2222 17.7547C26.6334 18.0294 26.9538 18.4198 27.143 18.8766C27.3322 19.3334 27.3817 19.8361 27.2853 20.321C27.1888 20.806 26.9507 21.2515 26.6011 21.6011C26.2515 21.9507 25.806 22.1888 25.321 22.2853C24.8361 22.3818 24.3334 22.3322 23.8766 22.143C23.4198 21.9538 23.0294 21.6334 22.7547 21.2222C22.4799 20.8111 22.3333 20.3278 22.3333 19.8333C22.3333 19.1703 22.5967 18.5344 23.0656 18.0656C23.5344 17.5967 24.1703 17.3333 24.8333 17.3333ZM9.83332 8.99999H13.1667C13.3877 8.99999 13.5996 9.08779 13.7559 9.24407C13.9122 9.40035 14 9.61231 14 9.83332V10.6667H9.83332V8.99999ZM10.5133 20.6667C10.3436 21.1538 10.0265 21.576 9.60604 21.8748C9.18554 22.1736 8.68249 22.3341 8.16666 22.3341C7.65082 22.3341 7.14777 22.1736 6.72728 21.8748C6.30679 21.576 5.9897 21.1538 5.81999 20.6667H10.5133ZM2.33332 3.16666C2.33332 2.94564 2.42112 2.73368 2.5774 2.5774C2.73368 2.42112 2.94564 2.33332 3.16666 2.33332H7.33332C7.55434 2.33332 7.7663 2.42112 7.92258 2.5774C8.07886 2.73368 8.16666 2.94564 8.16666 3.16666V3.99999H2.33332V3.16666ZM2.33332 5.66666H8.16666V7.30832H2.33332V5.66666ZM3.16666 10.6667C2.94564 10.6667 2.73368 10.5789 2.5774 10.4226C2.42112 10.2663 2.33332 10.0543 2.33332 9.83332V8.97499H8.16666V10.6667H3.16666Z" fill="#A098AE"/>
</svg>
