<svg width="29" height="25" viewBox="0 0 29 25" fill="none" xmlns="http://www.w3.org/2000/svg">
<path d="M26.5 6.66667H25.6667V2.5C25.6667 1.83696 25.4033 1.20107 24.9344 0.732233C24.4656 0.263392 23.8297 0 23.1667 0H3.16666C2.50362 0 1.86773 0.263392 1.39889 0.732233C0.930048 1.20107 0.666656 1.83696 0.666656 2.5V15.8333C0.666656 16.4964 0.930048 17.1323 1.39889 17.6011C1.86773 18.0699 2.50362 18.3333 3.16666 18.3333H3.99999V19.8333C4.00067 20.0802 4.07433 20.3213 4.2117 20.5264C4.34907 20.7315 4.54402 20.8914 4.77204 20.986C5.00005 21.0806 5.25095 21.1057 5.49316 21.058C5.73538 21.0104 5.9581 20.8922 6.13332 20.7183L8.51166 18.3333H10.6667V19.1667C10.6667 19.8297 10.93 20.4656 11.3989 20.9344C11.8677 21.4033 12.5036 21.6667 13.1667 21.6667H21.155L23.5333 24.045C23.7078 24.2193 23.93 24.3381 24.1719 24.3864C24.4137 24.4347 24.6645 24.4103 24.8926 24.3164C25.1206 24.2225 25.3158 24.0633 25.4536 23.8587C25.5913 23.6541 25.6655 23.4133 25.6667 23.1667V21.6667H26.5C27.163 21.6667 27.7989 21.4033 28.2678 20.9344C28.7366 20.4656 29 19.8297 29 19.1667V9.16667C29 8.50363 28.7366 7.86774 28.2678 7.3989C27.7989 6.93006 27.163 6.66667 26.5 6.66667ZM24 15.8333C24 16.0543 23.9122 16.2663 23.7559 16.4226C23.5996 16.5789 23.3877 16.6667 23.1667 16.6667H8.16666C8.05715 16.6665 7.94868 16.6879 7.84744 16.7296C7.7462 16.7714 7.65419 16.8327 7.57666 16.91L5.66666 18.8217V17.5C5.66666 17.279 5.57886 17.067 5.42258 16.9107C5.2663 16.7545 5.05434 16.6667 4.83332 16.6667H3.16666C2.94564 16.6667 2.73368 16.5789 2.5774 16.4226C2.42112 16.2663 2.33332 16.0543 2.33332 15.8333V2.5C2.33332 2.27899 2.42112 2.06702 2.5774 1.91074C2.73368 1.75446 2.94564 1.66667 3.16666 1.66667H23.1667C23.3877 1.66667 23.5996 1.75446 23.7559 1.91074C23.9122 2.06702 24 2.27899 24 2.5V15.8333Z" fill="#A098AE"/>
</svg>
