<svg width="24" height="20" viewBox="0 0 24 20" fill="none" xmlns="http://www.w3.org/2000/svg">
<path d="M23.4565 5.66892C23.1565 4.26267 22.669 3.10017 21.8065 2.18142C20.5878 0.831421 18.994 0.175171 17.1003 0.175171H16.8565C14.8503 0.231421 13.2003 1.03767 12.0378 2.50017C11.6065 2.01267 11.0628 1.52517 10.444 1.15017C9.22527 0.418921 7.81902 0.118921 6.22527 0.231421C4.46277 0.418921 3.05652 1.20642 2.00652 2.50017C0.900272 3.96267 0.356522 5.61267 0.412772 7.31892C0.469022 8.91267 0.956522 10.3752 1.87527 11.7814C2.90652 13.3752 4.20027 14.5939 5.36277 15.5689C7.01277 17.0314 8.90652 18.3252 11.2878 19.6564C11.5315 19.7877 11.719 19.8439 11.9628 19.8439C12.2065 19.8439 12.394 19.7877 12.6378 19.6564C14.719 18.4939 16.5378 17.2752 18.1878 15.8689C19.894 14.4627 21.1128 13.1127 22.0878 11.6502C23.4003 9.75642 23.8128 7.80642 23.4565 5.66892Z" fill="#EB5757"/>
</svg>
